<?xml version="1.0" encoding="utf-8"?>
<!-- Generator: Adobe Illustrator 24.3.0, SVG Export Plug-In . SVG Version: 6.00 Build 0)  -->
<svg version="1.1" id="svg2" xmlns="http://www.w3.org/2000/svg" xmlns:xlink="http://www.w3.org/1999/xlink" x="0px" y="0px"
	 viewBox="0 0 808 1519.3" style="enable-background:new 0 0 808 1519.3;" xml:space="preserve">
<style type="text/css">
	.st0{stroke:#FFFFFF;stroke-miterlimit:10;}
</style>
<path id="台北市" class="st0" d="M624.2,40.6c-3.8,1.7-4.2,6.9-7.2,9.1c-3.7,1.3-8.1,3-9,7.3c-3-0.4-6.6-1-8.2,2.2
	c-5.3,6.5-11.2,12.6-16,19.4c-0.5,3.5,0,7.2,1.4,10.4c2.7,4,8.3,1.9,12,3.8c1.7,2.3,4.5,4.4,5,7.2c0.1,4.8-0.6,9.6-2,14.2
	c-3.9-0.5-6.9,3.3-6.1,7c0.5,3.6,0.3,9.8,5.3,10c3.3,0,5.5-3.6,8.3-4.3c2.5,2.1,6.5,3.9,6.3,7.8c-0.1,3,1.3,6.4,4.8,6.3
	c2.2-0.2,3,1.6,3.5,3.4c1,3.2,2.9,7.5,7,6.8c2.3-0.4,4.8-1.3,6.8,0.5c2.6,1.4,5.7,3.1,8.5,1c2.8-0.9,6.4-3.7,3.8-6.7
	c-1.3-1.5-4.9-0.6-4.6-3.2c-0.1-4.8-1.8-10.3,0.7-14.8c7-0.1,13.9-1,20.7-2.7c3.1-1.6,1.5-6.4-1.9-6.1c-4.2-1.6-8.9-3.3-12.4-5.8
	c2-2.6,2.1-6,1.6-9.2c-0.2-4.2,4-8.3,1.8-12.4c-3-3.8-7.5-6.2-11.5-8.6c1.2-3.2,5-6.9,1.6-10c-1.9-3-5.1-5.5-4.8-9.3
	c-1.1-5.4-2.7-10.6-4.7-15.8c-1-2.1-4-1.8-5.3-3.2C629.1,42.4,627,39.7,624.2,40.6L624.2,40.6z"/>
<g id="新北市">
	<path id="path3661" class="st0" d="M678.6,114.7c-5.1,1.2-9.6,4.6-13.4,7.9c-6.8,2.2-14.3,2.1-21.3,3.3c-5.2,3.2-2.5,10.5-3.3,15.5
		c-1.8,4.5,4.9,5.8,5.9,7.2c-2.7,1.4-5.7,3.5-8.5,1.1c-3.3-2.1-7.3-1.6-10.9-1.2c-2.5-4.3-3.9-10.7-10-10.9c-1-3.5-1.4-8.3-5-10.6
		c-3.1-3.7-8.4-2.3-11.2,0.9c-2.3,2-4.6-1.4-7.2,0c-4.5,0.9-10,6.8-5.9,11c1.8,1,3.4,0.8,2.6,3.3c0.8,2.5,2.2,5.3,0.5,7.9
		c-3,4.1-9.8,8.1-6.8,14c2.5,3.4,7.9,2.5,10.8,4.7c0.1,4.2,3.1,9.4-1.4,12.1c-3.7,3.2-5.6,8.7-2.4,12.9c1.5,3.1,5.6,3.1,6.5,6.7
		c1.1,2.5,0.8,6.4-2.2,7.3c-2.7,1.9-1.8,5.9-3.3,8.1c-2.5,1.7-4,4.5-7,5.3c-4.3,2.8-4.9,8.3-9,11.3c-2.9,3.2-8.7,6.6-5.3,11.5
		c3,7.9,5.5,16.6,11.2,23c2.7,2.6,9.5,2.4,8.5,7.6c-0.3,6,7.7,8.5,11.9,4.9c4.6-3,10.5-3.3,14.9-6.3c2.3-2.2,1.8-6.7,5.7-7
		c3.4-2.1,7.8-1,10.7-3.7c1.8-4.2,10.2-2.6,9-8.5c-0.6-4.7-2.5-9.2-4.5-13.3c2.8-2.3,4.2-6.1,2.3-9.4c3.3-2.5,7.6-2.7,11.5-3.2
		c3.9-1.2-0.7-8.1,4.2-7.4c5.2-0.4,10.4-1.3,15.5-2.5c6.4,1.1,8.6-6.4,12.2-9.9c5-1.2,8.4-6,12.7-8c5.9,0.1,12.8,2.2,17.9-1.5
		c2.1-1.7-0.5-4.9,2.7-5.8c4-2.2,0.6-6.2,0-8.9c3.5-1,5.7-5.1,3-8.1c-2-2.4-1.7-6.2-5-7.7c0-1.9,3.2-2.1,3.4-4.4
		c1.8-6.5,3.6-13.6,2.4-20.4c-1.8-5.5-8.8-3.9-12.7-1.8c-2.5,0.9-5.4,3.4-7.8,0.9c-3.2-1.3-6.1,1.3-9.1,2c-0.8-2.4,3.4-3.9,2.8-6.8
		c-1-4.2-5.2-6.3-7.2-10.1c-3.1-3.1-1.1-8.2-4.7-11.2C681.7,115.3,680.1,114.6,678.6,114.7L678.6,114.7z"/>
	<path id="path3663" class="st0" d="M590.9,115.4c-7.7,1.6-13.1,7.9-16.6,14.6c-1.8,2.3-1.5-3.3-3.3-3.8c-2.4-2.7-5.6-0.6-8.4-0.1
		c-4.3-1-6.1,4.2-3,6.8c1.4,2.1-3,2-3.8,3.6c-2.8,1.4-1.7,6-5.4,5.8c-6.5,1.4-14.2-1.9-19.9,2.6c-1.6,4.3,0.7,9.6-1.1,13.7
		c-3.4,2-2.8,7.4,1.2,8.1c3,0.6,3.9,1,0.7,2.4s-4.4,5-2.3,7.5c-1.4,5.1,4.8,6.5,7.5,9c0.4,2.4,2.7,4.4,4,6c-3.6,2.5-0.4,6.5,1.3,8.6
		c-3.6,2.4-0.8,6.9,2.5,7.7c5.1,3.4,10.6-0.3,15.3-2.2c3.3,1.2,6.7,3.1,7.9,6.6c3.2,4.6,8.2,8.3,9,14.2c2.2,4.2,7.7,1.6,9.3-1.8
		c3-3.2,8-4.3,9.8-8.8c1.3-2.1-0.6-5.4,2.6-6.2c5.7-4.1,2.5-14.3-3.7-15.9c-1.9-2.3-2.8-5.3-0.8-7.9c2-3.7,6.7-6.3,5.2-11.2
		c0-4-1.3-8.8-5.8-9.7c-2.3-1.4-7.4-0.3-6.7-4.2c2.8-5,10.3-9.4,7.8-16.2c-1-2.6-1-6.4-4.3-7.4c-0.5-2.2,0.1-4.3,2.4-5
		c2.9-1,6.3-3.4,4.9-6.9C596.5,121.4,596.3,115,590.9,115.4L590.9,115.4z"/>
	<path id="path3665" class="st0" d="M616.3,1c-9.7,6.2-19.4,12.5-28.1,20c-3.6,1.2-8.7,0.3-9.7,5.2c-4.2,8.5-9.8,16.5-13.3,25.1
		c0.8,4.3,6.5,5.8,9.4,8.7c-3.7,0.2-9.2-0.6-12.3,3.1c-6.2,3.8-11.7,9.2-18.3,12.1c-9.8,1.7-19.7,3-29.4,5c-4.8,1.9-1.8,8.4,2.2,9.3
		c7.5,4,15.9,6.6,23.1,10.8c-0.6,6.1,6.8,6,11,6.8c3.7,0.5,6.6,3.9,8.3,6.6c-0.5,5.4,0.2,13.6,7.1,14.3c2.5-0.5,3.2,1.3,4.2,3.3
		c2.1,3.4,6.4,1.2,7.5-1.9c3-5,7.8-10.6,13.9-11c3.3,0.7,6.1-1.3,9.1-2.2c3.9-4.1,3.4-10.7,3.6-16c-1-6.3-7.2-11.6-13.7-11.2
		c-4.1,0.2-4.9-4.3-4.6-7.5c-0.3-4.7,5.1-7.3,7.3-11.1c3.4-3.7,6.4-8,10-11.2c3.3,0.9,7.4-0.2,7.9-4c4.3-2.4,9.4-4.3,11.3-9.3
		c0.8-1.5,1.9-4.3,3.5-1.8c0.4,3.4,4.4,3.8,6.3,5.8c2,6.1,3.5,12.3,5.3,18.4c1.8,3.5,4.3,9.9,9.4,8c7.1-3.5,14.5-6.3,22.2-8.3
		c5.3-2.6,10.1-6.2,14.1-10.6c1.3-4.3-4.5-6.4-6.6-9.4c-6.6-6.7-13.9-12.9-20-19.9c-2.8-6.2-3.8-13.5-7.8-19
		c-7.5-4.1-15.2-9-24.1-8.3C622.1,0.8,619.1-0.1,616.3,1L616.3,1z"/>
</g>
<path id="基隆市" class="st0" d="M682,55.3c-6.1,5-12.2,10.5-20.1,12c-6.9,2.9-16.3,3.9-19.8,11.3c-2.8,3.1-2.5,8.2,2.4,8.7
	c2.9,1.8,6.4,4.3,7.5,7.4c-1.2,4.6-3,9.3-1.8,14.1c-1.2,2.4-2.8,6.2,0.6,7.8c6.5,3.1,14.5,8.3,21.7,4.1c2.4-1,5.7-3.4,8-2.6
	c1.1,1.9,3.4,2.8,2.4,5.4c-0.1,6.6,7.7,10.1,8.6,16.1c-2.4,1.9-3.3,6.3,0.5,7.3c3.5,0.4,6.8-2.6,10.1-0.6c5.8,0.8,10.8-4.4,16.8-3.1
	c0.2,7.1-0.8,14.2-3.1,21c-4.4,1.1-2.9,6.5,0,8.4c1.2,3.7,4,9.6,8.8,6.9c4.3-2.1,9.3-1.2,13.6-3.1c3.3-3.1,8.3-6.9,7.4-12
	c-0.6-3.1-6.5-4.8-3.6-8.4c1.3-4,6.7-3.9,10.1-3.3c9.3,0.3,15.4-8.1,24.1-9.7c3.6-1.4,7.1-3.4,11.1-2.1c7.2,0.2,12.9-5.1,19-8
	c3.9-3.7-1.9-7.3-4.1-9.9c-2.5-4.1-6.9-4.1-11-3.2c-3.4,0-7.6,1.1-10.7,0.2c-1.8-6.1-1.4-12.9-4.2-18.6c-2.2-1.8-7.3-1.7-5.9-5.6
	c-0.3-5.7,2.3-11.8-0.1-17.2c-3.3-3.3-8.3-0.3-12.3-0.9c-8.2,0.4-16.4,0.5-24.7,0.8c-5.3-4.1-9.5-9.9-15.4-12.9
	c-11.6-2.1-22.4-6.6-33.3-10.6C683.5,54.6,682.6,54.7,682,55.3L682,55.3z"/>
<g id="桃園市">
	<path id="path3669" class="st0" d="M456.5,98.4c-16.3,4.2-32.2,13-43.5,25.7c-6,6.7-8.4,15.4-12,23.2c-2.5,5-11.2,9.9-7.6,16.1
		c4.3,3,7.3-3.9,11.9-1.3c5.5-0.3,11.6-4.3,15.2,2.2c2.5,5.4-1.1,14.7,7,16.5c4.1,2.4,10.3,0.9,13.9,2.8c2.5,8.5,12.3,5,18.4,5.8
		c4.7,3.1,3.7,9.9,0.6,13.8c1.1,8.1,11.7,10.1,17.2,14.8c6,3.5,15.3,10.2,20.7,2.2c5-6.2,12-16.5,5.9-24c-6.2-0.3-2.2-7.9-2.6-12
		c0.5-13.3,8.6-25.6,4.7-39c-1.2-7-4.3-17.6-13.6-15.3c-2.8-1.1-8.8,4.2-7.6-1.2c0.3-5.6-6.5-6.5-9.7-4.1c-2.2-3.8-8.9-3-10.8-4.4
		c3.9-6-2.4-11.9-2.5-18.1C461.1,99.7,458.8,97.8,456.5,98.4L456.5,98.4z"/>
	<path id="path3671" class="st0" d="M504.6,79.2c-14.7,5.4-29,12.1-43.5,17.8c-3.6,3-0.6,8-0.3,11.8c0.3,2.3,2.6,4.2,2.9,6
		c-2.1,3.1-1.4,8.4,3,8.7c2.7,0.6,6-0.4,6.5,3.2c2.6,2.5,4.8-2,6.9-1.4c2.2,1.5,2.1,4.6,5.5,3.8c1.2-0.3,2.6-1.9,2.4,0.3
		c1.6,4.6,7.3,2.3,10.5,2.3c4.1,9.4,9.2,20.1,5,30.4c-3.2,10.3-5.1,20.9-5.7,31.7c0.1,2.6,3,3.9,5,3.5c0.4,3.9,1.5,8.5-0.2,12
		c-3.2,4.2-7.8,8.9-5.8,14.6c-0.3,3.5,3.2,4.8,5.7,5.6c0.9,6.1,8.3,7.3,12.5,10.3c2.6,1.6,6.8,2.5,5.9,6.5c0.8,3.6-2.8,7.6,0.6,10.7
		c2.4,2.4-0.8,6.2-0.7,9.3c-1.6,3.6,1.5,8.2,5.6,6.5c3.5-2.2,5,2.4,6.8,4.5c2.2,2.8,2.3,8.3,7.1,8c1.2,1.5-1,5.1-0.8,7.7
		c-0.8,3.9,2,7.9,5.7,8.2c-1.9,5.3-2.1,12,3,15.6c2.8,3.3,7.5,5,11.4,2.5c4-2.1,7-5.8,11.6-6.6c5.5-4.3,7-11.8,9.6-18
		c1.3-3,1.4-6.6,2.1-9.6c1.9-1.9,4.3-3.7,7.1-3.4c4.6-1.4,3.3-7.8,2.8-11.3c-2.8-3.8-10-3-11.5-8.4c-3.5-6.9-6.8-14.5-8.5-21.9
		c2.5-4,8.3-6,9.1-10.7c-0.6-2.9-4.2-4.1-4.1-7.4c-2.7-5.3-7.5-9.2-10.3-14.4c-3.4-3-8.7-6.4-12.7-2.4c-4.2,3.3-9.8,1.2-13.3-2
		c3.5-2,1.9-6.3-0.8-8.2c1.5-1.4,2.7-4.8,0.3-6.4c-2.9-1.4-1.8-5.4-5-6.6c-1.8-1.5-6.3-1.7-4.5-4.8c0.5-1.6-1.2-3.3-1.1-4.4
		c3.7-1,5.7-6.7,1.5-8.4c-1.6,0.1-4.1-2.2-1.5-2.9c4.1-4,0.9-10.9,2.8-15.5c6.9-3,15.9,2.3,21.6-3.7c1.2-2.6,3.4-4.7,6.1-5.7
		c3.4-2.1,0-6-0.3-7.8c4.2-0.7,3-5.2,1.4-7.6c0-4.3,2-9.5-2.9-12c-4-5.3-11.5-4.9-16.9-6.8c0.9-5.6-6.4-6.7-10.1-8.8
		c-5.4-2.7-11.5-4.3-16.4-7.6C514.4,80.8,509.6,78.2,504.6,79.2L504.6,79.2z"/>
</g>
<path id="新竹縣" class="st0" d="M413.8,157.8c-3.5,0-6.7,4-10.2,1.4c-3.2-1.4-5.9,2.2-8.6,2.2c-2.9-2.5-7-0.5-7.8,3
	c-4.7,10.5-8.2,21.8-13.3,32c-5.1,6.5-10.9,12.5-15.4,19.4c-1.5,4.3,5.8,6.2,3,10.5c-1.9,6.8-2.8,14.3-5.2,20.7
	c-2.9,1.2-7.7,3.9-5.1,7.7c2.3,2.9,6.2,0.5,8.7-0.1c1.5,4.1,3.2,9.8,8.6,9.5c3.7,0.6,6.6,4,10.7,3c2.5-0.3,5-1,7.4-2
	c0.3,4.1-5.8,8-1.8,11.8c3.7,1.6,4.4,6.6,7.6,9.1c2.1,2.4,5.2,4.4,8.5,3.5c-1.8,6.1,5.4,8.7,9.1,11.7c3.6,2.4,7.7,6,12.2,4.7
	c4.1,2.8,7.2,6.9,8.6,11.7c-3.2,4.5-7,8.9-8.3,14.3c0.6,4.1,5.8,6.3,6.8,10.1c0.2,2.2-1.2,2.9-3.1,3.1c-5,2.3-1.6,8.3-0.5,12
	c2.3,4.2,7.7,1.8,11.3,3.5c5.7,0.1,10.2-5.4,16-3.4c8.8,1.2,17.7,0.5,26.2-2.1c2.1-0.3,4.7-1.5,6.6-1c-0.4,6.5,5.7,9.9,10,13.5
	c2.8,2.5,2.7,7.2,6.5,8.9c2.3,3-0.5,8.4,0.5,12.2c1.3,4.8,7.2,1.3,10.7,1.5c5.5-0.9,12.5-1.1,16.2-5.6c1.3-3.3,1-7.2,4-9.6
	c3.2-3.4,5.7-8.4,10.8-9c6.2-4,9-11.8,15-15.9c5.3-1.7,2.6-8.4,2.7-12.5c-1.1-4.4-0.8-8.2,3.5-10.4c2.3-3.4-1-7.6-3.5-10
	c-3.3-2.1-7.8,2.6-10.5-1.3c-2.6-2.1-5.6-4.4-4.5-8.2c0-3.4,2.5-8.6-2.3-9.9c-2.1-0.6-3.6-3.9-2.4-5.9c1.6-3.4,1.7-9.1-3.1-9.8
	c-2.2-0.5-1.8-4.2-3.5-5.7c-2-3.9-5.5-8.4-10.5-6.6c-3.8,1.9-1.8-2.1-1.5-4.3c1-3.9,2.8-8.7-1.4-11.3c1.7-5.1,2.6-12.9-3.5-15.5
	c-4.4-2.9-9.7-4.6-13.6-8c-0.3-3-3.4-4.2-5.2-5.7c-0.9-5.5-7.4-4.5-11.2-3.2c-9.1-5.7-18.4-11-27.2-17.1c5-4.1,5-12.9,0.3-17.1
	c-3.3-2.6-7.3-0.4-10.6,0.4c-3-1-6.5-2-7.5-5.4c-3.3-3.4-8.7-1.2-12.6-3.4c-2.2-1.1-5.9-1.2-7.2-3.3c-0.9-5.3,2-12.4-4-15.4
	c-1.8-1.5-3.8-3-6.2-2.7L413.8,157.8z"/>
<path id="苗栗縣" class="st0" d="M358.6,251.6c-2.1,1.2-4.3,2.2-6.4,0.4c-6.4-2.5-10.3,4.8-13.2,9.2c-4,6.4-7.8,12.9-11.8,19.3
	c-7.2,2.5-15.4,2.6-22.1,6.3c-3.6,5.2-4.5,12.2-8,17.3c-4.5,2-11.4,0.8-14.3,5.5c-8.9,20.4-13.8,42.8-27,61.1
	c-2.7,5.2-7.5,9.3-9.7,14.7c6.7,12.4,17.5,22,26.9,32.5c3.9,6.6,12.9,5.1,18.1,10c5.5,3.9,9.9,10.1,17.2,10.5
	c5.3,1.5,11.3,1.5,14.6,6.5c4.5,4.1,9.4,10.7,16.4,8.4c4.2-1.5,8.4-4.2,13-2.3c4.1,0.7,9,3,12.1-1.1c4.5-2,3.5-6.7,2.4-10.5
	c-0.2-2.6-1.7-5.9-0.8-8.2c5.2-3.4,10.6,1.6,16.2,2.1c5.5,1.5,11.8-0.9,16.8,1.9c5.5,4.7,8.1,13.7,15.9,15.1c4.1,1,6.9-2.9,6.8-6.5
	c0.9-2.8,5.1-3.2,7.2-4.8s4.6,1.8,7.1-0.2c2.7-2.1,6-3.1,9.4-2.9c4-0.7,3.5-5.7,6.2-8c2-2.9,4.3-6.7,8.5-6c5.3,0.9,8.7-3.6,11.1-7.6
	c1.8-3.2,6.8-2.3,7.8-6.4c0-1.7,1.9-3.7,3.2-2.1c0.5,3.5,3.3,7.9,7.4,5.9c5.2-0.9,6.1-7.6,7.5-11.9c0.7-2.2-0.5-5.5,2.4-6.3
	c5.5-1.8,7-8,6.6-13.2c0.8-4.3-3.3-6.6-5.1-9.8c-1.7-6.2-9-8.3-11.7-13.6c0.2-4.6-4.8-6.9-8.7-5.4c-7.9,2.1-16,3.9-24.3,2.7
	c-6-1-11.9,0.6-17.3,2.9c-3.3,0.5-6.9-0.8-10.2-0.7c-0.7-2.7-2.5-6.1-1.7-8.5c4-0.8,7.3-5.4,4-8.9c-1.3-2.8-4.9-4.9-5.2-7.7
	c1.6-5.4,5.9-9.3,8.1-14.2c-2.3-5.6-5.7-12.5-11.9-14.3c-5,1.1-8.5-3.7-12.5-5.8c-2.1-2.2-7-3.1-6.1-7c-0.2-3-3.4-3.6-5.7-3.5
	c-4.8-3.4-7-9.5-12-12.9c1.8-3.2,6.1-8.1,1.7-11c-3.9-1.1-7.5,2.3-11.6,1.2c-3.3-1.2-6.7-3.1-10.4-3.4
	C363.7,257.5,363.6,250.4,358.6,251.6L358.6,251.6z"/>
<path id="宜蘭縣" class="st0" d="M783.9,137.8c-4.9,0.9-9.6,3-14.3,4.6c-6.3,3.7-13,8.9-20.7,7.4c-5.7-0.9-12.8,5.4-9,11.1
	c1,2.3,5.6,4.6,2.9,7c-3,3.2-5.5,8.1-10.7,7.1c-6.5,0.5-12.8,4.1-17.2,8.6c-1,2.5,2.7,4.6,2.1,6.6c-2.6,1.3-4,4.1-3.4,6.9
	c-6.2,3-13.4-0.5-19.6,1.4c-3.2,3.4-6.7,6.3-11,7.9c-3.7,2.4-4.7,8.8-9.4,9.4c-4.3-0.9-8,2.5-12.4,1.8c-3.8,0-9.7,0.8-9.2,6
	c0.8,2.5-0.9,3-3,2.5c-4.2,0.1-11.5,2.1-10,7.7c2.4,3.6-5.1,5.8-2.1,9.6c1.9,3.8,3.7,8.5,3.4,12.5c-3.3,1.2-6.3,3.1-8.8,5.6
	c-5.4,1.3-13,1.9-14.6,8.4c-0.6,3.8-5.8,2.6-8.4,4.3c-5.4,1.9-10.4,5.7-16.5,4.8c-6-1.1-12.3,3.4-12.2,9.6c-1.9,7.6-4.9,14.9-9,21.7
	c-4.5,0.3-11.1,3.7-8.9,9.2c0.4,2.3,4,5.1,0.9,6.7c-4.4,2.2-4.4,6.8-3.4,10.9c0.1,3.2,1.2,7,0.5,9.9c-6.9,2.4-9.7,10.2-14.7,15.1
	c-1.5,3.1-5.5,1.2-7.4,4c-4.1,4.8-10.6,10-9.5,17c0.8,2.9,3.5,5.2,2.2,8.4c-0.2,4.5-2.8,10.6,2.7,13c3.7,2.9,8.8,1.2,12.3,4.4
	c3.3,0.9,1.3,5.1,4,6.9c2.5,2.6,6.3,1,8.4-1.2c5.7-1.7,11.6-2.8,17.6-3.2c4.2,5.3,9.6,9.5,15.8,12.2c5.8,3.3,12,6.4,18.8,6.1
	c4.4,1,9.8,0.8,13.3,3.7c2.6,4.6,7.4,7,12.5,7.6c3.4,1,9.4,2.8,9.8-2.4c-0.1-1.9-2.5-4.6,0.9-5c3.8-2.2,8.8-3.2,12-6.5
	c1.5-3.8-3.9-4.7-4.7-7.3c0.7-1.7,2-4,3.5-1.3c2.3,3.3,6,5.3,10,5.4c3.7,3.4,7.8,6.6,12.9,7.8c10.7,3.5,21.3,7.5,32.2,10.4
	c5-1.3,3.3-7.9,4.8-11.7c3-16.3,4.3-33.2,11.7-48.3c1.7-3.3,2.2-8,6.5-8.9c3.9-2.4,9.1-3.2,12.2-6.6c1.7-3.9-2.7-7.4-3.8-10.9
	c-0.5-2-3.9-5-0.6-6c3.6-2.9,8.5-4.5,11.5-7.9c1.6-4.6-0.6-9.9-0.5-14.7c-1.3-8.5-0.6-17.6-5.4-25.2c-2.6-6.9-7.8-13.1-6.8-20.8
	c-0.7-7.1,0.5-14.6-1.3-21.5c-3-5.5-7.5-10.6-6.9-17.3c-0.3-9.8-3-19.6-1.1-29.4c3.3-8.5,7.3-16.8,11.4-24.9
	c10.1-10.3,19.7-21.1,26.8-33.7c2.9-6.4,11.5-6.8,15.7-11.9C788.1,140.5,785.9,137.7,783.9,137.8L783.9,137.8z"/>
<path id="花蓮縣" class="st0" d="M582,418.9c-7.2,6.7-4.4,20.4-14.5,26.1c-7.3,5.2-14,13-13.7,21.7c-11.9,0.8-15,12.8-13.6,22.8
	c-7.2,8.3-24.7,8.6-25.2,21.1c-4.5,10.6,11.9,15.1,16.8,20.4c-1.4,15.8-17.6,23.2-19.8,38.5c-5.3,8-8.3,17.3-2.7,25.4
	c1.9,11.2,3.2,23.5-2.6,33.4c-0.1,13.2-12.5,22-12.9,35.6c-3,5.8,0.9,14.7-8.6,15.2c-14.8,6.5,10,10.1,7.6,20.9
	c10.7,12-1.3,29.6-2.1,43.8c-0.4,12.7-11,18.3-21.1,22.8c-10.8,5.4-5.3,19.7-11.2,26.9c-14.2,5-36.8-0.5-41.7,19.2
	c0.4,5.7,8.3,12.6-1.7,15c-10.7,3-3,15.6-7.8,21c-6.9,2.9-5.9,11.7-13.7,13.8c-1.5,11,17.2,10.1,22.2,18.4
	c6.7,13,6.6,31.9,16.5,42.9c9.9,1.1,19.3,4.6,24.8,12.8c6.1,1.1,13.7-6.8,18.1,2.1c6.2,8.5,6.9,23.2,17.1,27
	c3.9,5.5,12.6,4.7,15.4,12.3c6.1,3.8,16.5,2.2,21.1-2.8c2.6-11.1-4.8-24.5,6.9-32c2.1-8.1,6.1-14.4,10.5-21.3
	c-2.1-10.7,12.4-14.1,8.8-24.9c-3.2-13,21.1-20.8,12.9-33c-9.3-5.5,1.6-20.2,5.4-26.6c7-12.8,27.1,0.9,31.3-14.6
	c6.1-19,1.2-39.6,8.9-58.6c4.9-26.5,11.3-52.5,21-77.4c-1.3-12.5-0.9-24.6,6.2-35.5c10-21,5.6-45.3,14.6-66.1
	c8.2-8.1,2.7-17.7-2-25.5c-5-16.2,11.4-26.3,16.1-39.5c1.4-13-8.2-28.6,9-34.3c14.1-11.5,30-24.2,34.6-42.5
	c-8.5-9.9-25.6-7.3-36.4-15.3c-7.7-6.8-17-6.1-23.5,1.2c-8.7,1.5-6.8,16.1-16.6,10.1c-13.2-6.8-27.1-12.2-41.4-16.1
	C590.9,421.4,586.7,417.4,582,418.9L582,418.9z"/>
<path id="path3681" class="st0" d="M655.6,414.5c-2.3,0.4-3.9,2.7-4.5,4.9c-0.5,2.8,2.1,4.6,4,6.1c1,0.8,1.8,2,3.3,2
	s2.9-0.9,4.3-1.3c1.6-0.6,2.5-2.4,2-4.1c-1-2.1-3.1-3.4-4.6-5.2C659,415.6,657.7,414.1,655.6,414.5L655.6,414.5z"/>
<path id="台東縣" class="st0" d="M583.8,828.6c-4.6,0.5-6.8,5-11.1,6.7c-5.5,7-10.5,16.2-9.8,25.4c0.8,3.9,5.9,3.9,8,5.5
	c-3.7,10.2-15.6,16.2-18.4,26.4c-0.1,6.2,2.8,14.4-4.2,17.8c-4.1,4.2-1.2,10.8-5.6,15.4c-3.2,4.3-7,8.1-6.8,13.9
	c-0.4,5.8-6.5,6.6-8.8,10.9c-1.1,4.8,3.3,8.8,1.3,13.9c-1,3.8,0.3,10.3-2.8,12.6c-5.9-0.7-11.5,2.9-16.6,4
	c0.5-7.8-6.4-14.2-13.8-14.2c-3.6-4.4-11-5-11.2-12c-3.3-8-4.9-21-14.8-23.4c-4.5-0.7-7.3,7.5-11.3,5.3c-3.2-5.3-7.2-12.4-14.5-11.2
	c-3.9-1.2-7-4.3-11.2-4.7c-7.9-8.9-4.7-23.7-15-31.2c-5.7,3.2-11,7.9-17.9,9.4c-6.4,2.2-13.3,0.9-17.5,7.5
	c-5,5.9-10.6,11.3-17.2,14.9c-3.5,7-4.7,14.9-3.4,22.6c-3.7,3.3-8.3,5.8-8.7,11.4c-5.5,10.6,3.1,24-4.1,34.5
	c-2.8,5.4-5.4,12.5-0.5,17.3c-0.3,5.2-10.1,2.9-9.8,9.4c-0.2,13.1-14.6,21.2-14.2,34.7c-0.5,6.1,5.4,10.6,3.2,16.8
	c0,6.4,4.4,12,10.7,13.4c8.5,3.7,2.7,15,3.9,21.9c-1.6,10,15.8,5.6,15.7,15.5c1.9,9.6-4.9,18.1-5.6,27.7c-0.7,4.3-2.9,8.1-7.9,6.1
	c-5.8-1.4-10.6,1.6-13.6,6.2c-7,5.2-19.5,5-21.3,15.6c-4.4,10.4-11.3,19.9-13.8,30.8c-3.5,2.9-2.1,8.2-2.4,11.5
	c-7.9,6.2,0.4,16.4,2.3,23.4c0.4,5,8.5,10.4,2.3,14.8c-7.3,6.3,0.2,14.9,6.7,17.5c2.8,5.1,9.4,13.8,1.8,16.9
	c-4.8,1.6-11.2,2.8-11.2,9.2c-0.7,4.3-5.1,12.9,2.6,13.3c3.4,0.1,3.2,6.5,7.8,5.7c5.7,1.6,6.8,10.9,4.7,15.7
	c-5.6,2.5-3.5,9.5,2.1,10.2c3.4,1.3,5.8,3.6,2.3,6.5c-2.9,5.5,3.7,9,7.8,5.7c5,4,10.4,9,16.9,9.6c1.9,8,10.8,2.6,13.7-1.7
	c5.6-10.2,1.5-22.9,3.1-34.1c0.5-24,17.1-43.8,21.9-67c4.7-14.2,6.7-30,12.5-43.3c6.7-4.3,15.8-9.3,14-18.8
	c2.1-10.8,4.7-24.2,16.2-28.9c18.6-12.2,40.8-23,51.3-43.6c-0.2-4.4,2.2-6.3,6.3-6.6c7.4-5.1-0.9-15.1-1.7-21.5
	c-1.1-7,6.6-11.1,12.9-11.1c10.5,1.3,12.1-9.1,15.1-16.6c4.4-9.8,6.5-22.3,17.4-27.3c9.9-6.9,9.7-20.7,15.1-30.6
	c4.2-8.8,5.6-19.5,11.5-27.3c6.2-6.7,19.2-9,16.5-20.4c0.8-9.7-0.9-19.5-4.8-28.4c10.8-11.6,12.4-27.7,17.7-41.8
	c3.1-6.5,12.7-8.1,12.4-16.6c1.2-14.8,6.3-28.7,8.7-43.1C598.2,829.6,589.5,828.4,583.8,828.6L583.8,828.6z"/>
<path id="path3689" class="st0" d="M599.7,825.8c-1.7,0.5-3.3,1.3-5,1.5c-2,0.3-3.6,2.8-2.4,4.7c0.6,1.2,1.9,1.7,2.8,2.6
	c1.5,0.9,3.3,0.3,5,0.3c2.2-0.5,2.6-3,3.2-4.9c0.5-1.7-0.4-3.5-2.1-4.1C600.7,825.8,600.2,825.8,599.7,825.8L599.7,825.8z"/>
<path id="path3691" class="st0" d="M508.2,975.5c-1.5,0.5-2.5,2-2.2,3.6c0.2,1.1-0.2,2.3,0.5,3.3c0.8,1.4,2.5,2,4,1.5
	c1.8-0.4,3.7-1.1,4.7-2.7c0.8-1.5,0.4-3.3-1-4.2c-1.1-0.6-2.5-0.7-3.6-1.3C509.8,975.3,508.9,975.3,508.2,975.5z"/>
<path id="path3693" class="st0" d="M461.9,775.1c-1.3,0.2-2.2,1.4-3.1,2.3c-0.8,0.7-1.3,1.6-1.4,2.6c-0.1,1.4,0.8,2.5,1.5,3.6
	c0.4,0.9,1.2,1.7,2.2,2c1.5,0.4,3.1-0.3,3.8-1.8c0.3-1.1,0.4-2.2,0.5-3.3c0.2-1,0.3-2,0.2-3C465.1,775.8,463.5,774.8,461.9,775.1
	L461.9,775.1L461.9,775.1z"/>
<path id="path3695" class="st0" d="M466.1,763.8c-1.5,0.1-3,0.2-4.5,0.5c-1.5,0.7-2.4,2.4-1.9,4.1c0.2,1.7,0,3.8,1.6,4.9
	c1.2,0.9,2.7,1.9,4.2,1.2c1.7-0.7,2.2-2.8,3.6-3.9c1.2-0.9,2.3-2.1,2-3.7C470.7,764.6,468.1,763.7,466.1,763.8L466.1,763.8z"/>
<path id="path3697" class="st0" d="M476.4,757.7c-1.8,0.5-2.7,2.4-3.9,3.7c-1.2,1-1.6,2.6-1,4.1c0.8,1.6,2.7,2.3,4.3,1.5
	c1.7-0.8,3.3-1.7,4.8-2.9c1.2-1.3,1.2-3.3-0.1-4.6c-0.1,0-0.1-0.1-0.2-0.1C479.2,758.4,478,757.3,476.4,757.7z"/>
<path id="南投縣" class="st0" d="M501,470.8c-2.1,3.7-2.3,9.4-7,10.9c-2.7-2.3-6.6-4.3-9.8-1.9c-4.7-0.7-7.5,4.5-12.3,3.1
	c-2.9-0.2-4.7-4.7-7.8-1.5c-1.4,2.9-6.2,1.3-7.3,5c-0.7,5.1-6.3,3.1-10,3.9c-6.2-0.5-11.8,3.5-13.4,9.5c-5.7,5-13.2,9.1-20.6,10
	c-3.9-4.8-11-1.5-12.4,3.8c-2.1,5.5-5.2,14.1-12.7,12.3c-4.8-0.8-10.1-4.8-14.2,0.1c-3.5,1.5-6.9,6-10.5,5.8c-3.6-3.4-11-5.2-10.6,2
	c-0.2,1.9-1,3.7-2.3,5.2c-0.5-5.4-3.2-10.8-9.2-11c-2.5-3.1-8-4.7-9.8,0.2c-2.7,6.4-4.9,13.3-4.4,20.2c-7.8,0-14.3,8.1-14.1,15.6
	c0.5,4.7-5.5,7.2-8.3,10c-3,1.6-6.1,5.4-9.5,5.4c-3.9-3.4-8.9-5.8-14-3.6c-6.1,3.1-12.7-5.3-18,0.3c-4.5,2.3-12.4-3.1-15,3.2
	c-1.3,5.4,8.2,6.5,4.9,12.1c-1.8,6.8-6.4,12.6-5.8,20c-1,8.4,1.8,17.7-3.9,24.9c-2.2,2.9-0.2,6.1,0,9c-4.1,7.8,5.7,13.6,10,18.5
	c3.3,3.8,8.5-1,12.1-0.3c2.1,2.6,2.2,5.6-1.4,6.8c-3.7,3.9-10.8,2.2-13.3,7c0.2,7,4.5,13.2,5.3,20.1c-7.7,0.6-6.3,9.9-5.2,15.3
	c2.9,5.9,2.1,12.9-2.1,17.9c-2.7,5.1-5.4,12.5-1.9,17.7c2.2,2.3,5.8,0.3,7.3-1.4c0.4,7.4,11.3,14.3,16.1,6.5c3.8-1.7,9-3.1,11-6.5
	c4.1,4,8.7,9.4,15.3,7.4c5.5-2.1,7.8,4.5,12.7,5.5c3.8,1.7,8.7,2.3,12.3,0.5c4.3,7.7,2.6,17.6-2.5,24.5c-0.8,5.2,5.2,8.7,5.2,14.1
	c0.8,6.9,1.9,18,11,18.2c4-0.6,8-1.6,11.5,0.9c3.6,0.3,5.7-3.6,9.6-2.4c11.3,0.5,22.6,2.6,33.9,3.8c4.7,1.3,10.3,2.1,14,5.1
	c-1.7,3.7,1.2,8.7,5.5,6.7c4.5-1.4,13.8-3.6,11.6-10.1c-1.7-3.8-6.2-6.6-1.9-10.6c2.6-3.9,4-9.7,7.4-12.7c5.7,3,10.8-3,16.7-1.2
	c5.5-0.2,14.6,2.5,17.1-4.2c-0.5-2.4-0.8-4,0.7-6.2c1.2-3-3-6.4,1-8.5c2.8-3.1,0.3-7.4,0.2-10.5c5.3,0,11.2-1.1,14-6.2
	c1.8-2.1,4,1.9,6.5,0.3c4.6-0.7,5.1-5.5,6.5-8.6c3.8-4.7,1.2-11.5,4.8-16.5c2-3.9,0.1-8.5,1-12.4c5-5.7,4.8-15.6,0.8-21.8
	c-2.9-2.8,0-8.6-4.5-10.9c-2.7-2.5-9.9-4.8-7.9-9.5c3.8-1.9,10.2-3.4,8.7-9c-0.2-2.3-2.9-6.1,1.1-5.8c5.3-3.9,2.7-11.8,6-17.1
	c1.6-4.9,4.4-9.3,8.3-12.7c2.9-4.1-0.9-9.3,0.3-13.3c6-1.3,3.7-9.5,4.5-14c-0.8-6,2.3-13.9-2.6-18.6c-4.7-1.4-4.1-8.2-1.5-11.4
	c3.8-7.3,8.5-14.6,8.8-23c6.7-4.8,14.1-10.4,14.5-19.5c2.1-4.2,1-9.9-4.2-10.9c-3.9-1.7-7.4-5.2-11.4-6.3c-0.9-3.7-1.3-7.5,1.3-10.5
	c1.5-2.6-3.3-7.3,1.5-7c7.6,1.2,11.1-6.6,16.5-10c3.8,0.6,9.3-1.8,7-6.4c-3.3-8.3-13-11.9-21.2-12.1c-5.4,5.4-9.9,2.3-14.3-2.5
	C505.1,469.9,502.9,469.2,501,470.8L501,470.8z"/>
<g id="台中市_1_">
	<path id="path3657" class="st0" d="M301,482.9c-5.4,0.2-4.7,7.2-9.5,8.7c-4.7,2.6-10.1,3.8-15.4,3.5c1-5.2-4.6-7.3-8.8-5.8
		c-5.8,0.1-11.4-4-17-0.8c-6.1,0.4-12.4-5.2-18.4-2.6c-3,3.2-2.8,8.9,0,11.5c-3.1,5.6-9.6,11.2-8.3,17.8c2.4,3,7.5,5.4,4.5,9.9
		c-2,4.7,0.6,11.5,6.5,10.5c5.8-0.5,4.6,7.9,7.1,11.2c3.3,6.3,0.5,13.7,2.8,20.1c5.4,1.9,12.3-0.7,16.6,4.4
		c6.3,5.7,14.9,9.1,23.2,6.2c5.9-2.2,9.8,8.3,15.4,2.5c5.8-4,13.7-7.5,15.6-14.8c-1.4-5.4,2.9-10.1,6.5-13.4
		c4.8,1.1,9.4-2.8,7.2-7.7c0.6-7.2,5.5-14.2,1.9-21.4c0.5-4.5-3.1-8-7.7-8c-5.4,0.4-2.6-6.3-4.2-9.7c-2.8-5.1,1.8-12.3-3.7-15.9
		C310.9,486.4,306.2,482.9,301,482.9L301,482.9z"/>
	<path id="台中市" class="st0" d="M527.4,384.2c-9.4,4.7-21.6,1.7-30.1,8.4c-3.2,4.1-1.5,10.3-5.5,14.1c-0.9,2.4-6.3,5.3-6.4,1
		c0-5.2-7-8.5-8.1-2c-0.1,3.2-2.4,3.7-4.9,4.5c-4.3,1.8-5.1,8.5-9.8,9.1c-8.2-1.7-13.6,6.1-15.8,12.9c-0.7,2.5-5.3,0.5-7.1,2.1
		c-3,0.4-5,4.3-8.1,2.2c-6.5-0.6-12.8,4.7-13.3,11.1c-10.2,1.5-12-12.2-20.2-15.2c-7.8-1.7-16.2-0.2-23.7-3.8
		c-4.9-2.8-12.9,0.3-10.9,6.8c-0.2,4.3,4.7,9.8-0.3,12.5c-5.8,5-13.7-3-20,1.3c-4.6,3.4-11.1,2.5-14.6-2.1
		c-4.4-6-11.1-9.9-18.4-10.8c-11.2-2.3-18.2-13.5-29.4-15.9c-9.7-6.2-16.5-16.2-24.3-24.5c-3.6-3-5.3-10.5-10.9-9.5
		c-14.2,16.8-27.6,34.4-39.9,52.6c-5.3,8.6-10.9,17.3-14.4,26.8c0,4.3,7,7.2,3.4,11.4c-2.2,5-6.5,9.4-7.4,14.9
		c2.8,4.1,10.1,3.4,10.9,9.5c2.5,5.9,5.5,12,4.6,18.4c3.3,6.4,10.6,10.3,17.2,12.7c4.7,2,10.9,1,10.3-5.4c2.3-5.4-0.7-10.7-5-14.1
		c1.9-5.7,6.9-10.1,8.3-15.8c-0.6-3.2-3.9-4.9-0.9-8.3c0.9-4.4,6.3,0,9,0c4.5,1.9,9.4,2.3,13.8,0c5.6,1.9,11.6,2.6,17.6,1.8
		c0,7,8.5,6.5,13.3,5.2c5.7-1.3,11.7-5.3,12.5-11.2c6.3,0.3,11.9,3.9,17.1,7.2c0.6,7.7-0.7,16.5,3.4,23.3c2.5,3,10,0.3,9.4,5.7
		c-0.7,5,3.5,8.2,8.2,6.8c2.3,1.5,4.7,4.5,8.2,3.9c1.4,2.9,2.5,10.5,7.7,7.7c2.7-1.7,1.8-6.4,3.4-8c4.4,2.7,9.5,5.3,13.5,0.4
		c4.1-2.6,8.3-6.7,13.5-4.1c5.9,1.7,13.5,1.2,16.2-5.3c3.2-4.1,2.9-12.3,9.4-12.6c5.5,5.6,13.6,0,19.2-2.7
		c4.9-2.4,8.4-6.7,10.8-11.4c5.7-5.2,16.9,0.8,20.4-7.9c0.8-3,5.6-1.5,6.9-4.7c1.3-1.4,3.3,2.9,5.5,2.5c4.7,1.4,8.3-3.3,12.9-3.2
		c2.5-1.9,4.7-1.8,6.9,0.5c6.4,3.4,9.9-4.9,11.3-9.7c4.6,0.1,7.9,6.9,13.3,5.6c3.7-0.8,6.8-4.2,10.7-1.4c4.9,1.4,13.2,5.9,16.2-0.7
		c0-2.9,0.5-5.6,3.7-6.3c3.4-1.8,9.5-1.6,8.6-7.1c-0.9-3.8-0.5-9.3,4.3-9.9c4-0.8,4.1-5.5,4.4-8.6c6.3,0.9,15.8-4.8,11.8-12.1
		c-1.2-2.2,4.2-2,3.8-4.9c0.7-2.8-2.7-5.4,0.7-7.6c6-5.7-3.9-13.2-9.9-10.8c-5.8,0.7-12.2,2.1-16.7,5.5c-2.6-0.3-4.5-2.6-4.4-5.2
		c-2.8-6-10-4.5-14.8-7.3c-3.5-2.5-0.7-8-1.7-11.6C532.8,387.9,531.3,383.8,527.4,384.2L527.4,384.2z"/>
</g>
<g id="彰化縣">
	<path id="path3703" class="st0" d="M188.7,492c-6.7,2.2-6.1,12.6-13.5,14c-5.5,0.7-8.9,4.8-6.7,10.1c-3.3,12-10.1,23-15.5,34.2
		c-2.2,6-9.7,7.3-12.4,12.5c0.5,6.4,4.8,12.5,9.5,16.7c5.4,1.8,9.3,5.8,12.2,10.7c3.1,4.9,9.4,10.3,15.5,8.2
		c3.4-1.5,1.2-6.5,3.3-8.1c4-1.9,6.5,4.6,10.8,3.3c5.1-0.8,10.3-2.9,15.1,0.1c4.7,2.2,8.8-4.2,13-0.8c6.5,0.9,12.4-5.5,18.6-3.8
		c6,2.4,3,11.7,9.4,13.1c6.4-0.8,7.4-9.3,7.6-14.5c-0.2-3.9-5.6-4.5-4.7-8.5c4.9-0.8,12.3,1.8,15.5-3.1c0.1-6-7.3-9.1-12.4-10
		c-2.1-1.1-7.2,1.4-7.9-1.4c0-10.6-2.1-21.6-7.4-30.7c-5.3-0.4-10-2.1-15-3.6c-7.5-0.3-14-5.7-18.8-10.9c1-8.5-2.8-17.1-7.8-23.8
		C194.8,493.7,191.8,491.8,188.7,492L188.7,492z"/>
	<path id="path3705" class="st0" d="M137.4,563.8c-6.4,7.4-13.6,15.3-16.1,25c-0.9,3.5,2.8,6.1,4.8,7.1
		c-10,18.7-22.2,36.2-32.7,54.6c-0.6,6.3,8.3,5.9,12.2,8.3c10.3,3.9,22,3.4,32.3,0.1c5.9-4.2,13.3,0.7,19.9-0.6
		c4.5-0.3,9.5-1.9,12.9,2.2c10.3,6.2,22,9.9,34,10.5c9.1-1.3,17.8,1.1,26.5,3.4c11.1,1.5,24.9,5.9,34.5-2.3
		c4.2-2.6,4.5-10.2-1.4-10.5c-4.4-0.9-9.9,2.3-12.7-2.8c-2.3-3-6.7-5.7-7.3-9.4c1.9-3.3,0.1-7,0-10.3c6.8-9,4.6-21.2,5.2-31.8
		c0.1-5.8-3.9-10.4-5.1-15.9c-3.3-7.7-12.9-4.7-18.7-2.3c-4.4,2.7-9.2-1.4-13.6,1.7c-4.5,2.8-8.7-3.2-13.6-1.2
		c-4.2,0.5-9,2.8-12.3-1c-5-3.6-10.2,1.5-9.6,6.8c-1.6,3.6-5.9-1.5-8.2-2.3c-5.8-4.8-8.5-13.2-16.5-15.3
		c-5.7-3.4-5.9-12.8-12.7-14.6l-1,0.3L137.4,563.8L137.4,563.8z"/>
</g>
<path id="雲林縣" class="st0" d="M80.4,652.3c-13.1,15.6-21.6,34.8-25.8,54.6c-0.3,3.1,2.5,5.6,5.4,5.6
	c-5.2,8.4-13.3,15.7-14,26.2c-2.8,14.1-6.4,28.6-2.1,42.8c0.6,3,1.9,6.2-1.1,8.3c-1.5,6.8,8.1,6.5,12.3,8.3
	c5.1,2.2,10.5,0.8,15.7,0.7c4.5,2.6,11,5.7,15.1,0.7c2.9-4.3,0.8-10.7,3.2-14.7c2.2-1.8,4-0.8,4,2c1.5,5.4,8.6,3.3,8.7-1.6
	c2-2.3,5.9-3.6,5.9-7.5c0.3-3.2,6-0.4,7.2-4c0.6-4.1,6.3-0.6,8.4-3.8c2.5-2.8,4.1-7.2,8.7-6.6c4.8,0,5.9-5.2,7.5-8.3
	c5.6,0.8,6.7-6,11.6-7.2c4.9,0.5,10.8,6.2,15.5,0.5c8.5-4.1,18.6-1.7,27.8-2.8c2.9,6.5,7.3,13.5,14,16.3c9.6,0.9,18,6.6,27.8,6.2
	c4.2,1.1,6.2-2.7,8.9-4.7c2.5-0.5,8.2-0.6,6.4,3.4c-1.4,3.7,2.3,8.7,6,5.3c2.3-2.2,4.6-3.7,6.5-0.2c4.5,3.5,8-5.3,11.9-0.7
	c4,2.3,12,5.9,13.9-0.5c0.6-6.2-3.4-11.9-1.7-18.1c-0.1-5.2-8.1-8.9-11-4c-4.2,0.9-8.5,2.5-11,6.1c-4.2,0.6-9.5-2.4-9.8-6.9
	c-1.9-3.7-6.5-1.1-8.1,0.5c-3.3-7.4,0.8-15.4,5.2-21.4c3.7-8.6-4.1-18-0.6-26.3c5.2,0.5,5.7-5.8,3.7-9.4
	c-2.6-6.1-3.3-16.2-11.8-16.9c-13.7-0.6-26.5-7.8-40.3-5.4c-11-0.8-21.8-4.1-31.4-9.5c-4.3-4.3-10.3-3.9-15.8-3.2
	c-7.2,0.3-15-3.2-21.4,1.4c-10.7,1.9-22.3,3.2-32.5-1.8C96,653.7,88.1,650.8,80.4,652.3L80.4,652.3z"/>
<path id="嘉義市" class="st0" d="M182.5,742.9c-7.7,0-15.5,1.4-22.1,5.7c-4.8-3-12.3-5-15.9,0.9c-1.1,2.9-3.1,2.8-5.6,3.2
	c-4,1.9-2.6,9-8.2,8.2c-5,0.4-6.5,5.8-10.1,8c-3.2-0.3-6.8,1.3-7.3,4.6c-4.6-0.9-7.9,2.7-8.8,6.8c-2.8,2.1-5.1,4.8-6.6,7.9
	c-3.1-0.1-2.1-6.4-5.6-6.8c-6.7-0.9-7.1,8.5-7.1,13.2c0.8,3.5-1.3,5.1-4.6,4.5c-5.5-0.1-10.3-4.1-16-2.2c-9.1,0.2-17.4-5.6-26.6-4.9
	c-4.7,3-2.1,10.3-1.6,14.7c1.9,4.2,8.8,0.4,11.2,2.6c-0.6,8.3-5.9,16.7-0.7,24.6c1.9,7.1,8.2,14.2,3.5,21.4c-1.4,2.7-1.5,7.8-5.7,7
	c-5.9,3.4-7.1,11.5-9.8,17.3c1.3,6.5,9.9,1.6,13.3,6c2.3,2.7,6.7,3.8,8.7,6.3c-1.1,4.3,4.3,9.4,7.5,4.8c0.4-5.2,4.6,0.5,7.5,0.5
	c7.1,0.2,8.8-9,12.7-13.3c2.1-4.6,8.5-1.8,11.3-5.8c2.6-2.1-0.7-7.3,3.2-8.2c4.7,3.3,7.5-2.6,6.9-6.5c0.5-3.9,4.4-4.6,7.5-5
	c2.5-0.8,1.5-5.3,4.7-3.3c5.6,2.9,8.6-3.7,12.4-5.8c8.5-1,17.2-2,25.3-5.1c3.1-0.2,5.6,4.7,8.7,1.4c2.4-3.6,6.9,1.4,9.8,1.9
	c5.1,2.6,10.6,5.1,16.5,4.7c2,4.2-5.9,2.1-5.4,6.5c-1,5.3,5.3,5.8,8.8,5.9c2.6,2.5,1,5.1,0.7,7.9c1.2,5.2,9.3,3.9,11.3,7.5
	c-0.4,4.7-5.8,7.6-4.3,12.7c-0.6,5.9-4.1,12.5,0.5,17.9c4.9,4.2-6.4,9.7,0.3,13.3c7.1,5,17.7,10.8,25.5,3.8c1.8-2.1,4.2-3.5,6.4-1
	c5.4,2.8,11.1-2.1,16.8-0.1c7.1-0.3,5.5-10.8,1.4-14c-1-5.2-1-10.4,0-15.6c7.5-1.6,14.2,3.3,21.5,3.4c4.3-0.8,2.2-5.7,2.8-8.2
	c2.5-2.3,5.4-3.4,8.7-2.3c6.5-2.1,10.4-9.1,14.6-13.8c5.3-1,13.1,1.3,14.8-5.8c1.5-4.7,5-7.7,10-7.6c4.3-2.2,3.4-8.1,7.3-10.9
	c3.3-3.3,4.6-8.2,6.1-12.2c6.1-3.1,14.7-3.5,17.3-11c4.7-6.3,13.4-3,19.2-6.8c3.7-3.1-0.7-8-4.9-7.1c-7.1,0-15.9-3.3-21.9,1.9
	c-5.1-3-11.3-0.7-16.4-1.9c-6.8-7.5-3.2-19.5-10.7-26.9c-1-3.5,4.1-7.1,4.3-11.2c0.4-5.5,2.2-13.9-3.7-17c-6.8,0.6-14.2-1.1-19.3-6
	c-4.9-2.4-11.7-1.6-16.1,1.2c-2.7,5.5,2.9,12.2,0.4,17.5c-6.8,1.2-12.3-9.3-18.4-2.5c-2.9,1.8-6.5-4.7-10-1c-0.7,1.4-4.6,3-3.8,0.1
	c2.2-7.4-9.7-11.5-13.1-4.8c-3.3,4.6-9.9,0.4-14.6,0.3c-6.4-2.1-13-3.8-19.4-5.5c-5.3-4-8.6-10-11.7-15.6
	C191.2,742,186.8,742.9,182.5,742.9L182.5,742.9z"/>
<g id="台南市">
	<path id="path3711" class="st0" d="M155.6,841c-5.8,1.7-11.4,4.5-17.6,4.2c-4.5,0.7-10.1,0.1-12.9,4.6c-1.5,1.4-2.8,4.1-5.2,2.5
		c-2.7-1.3-7.3-1.1-7.2,2.9c0.2,1.9-2.8,0.3-4,1.2c-5.4,1.2-6.5,7.5-5.8,12.2c-2.4-2.1-6.1-2.5-7.8,0.6c-1.7,1.7-0.8,4.3-0.5,6.1
		c-2.3,1.8-4.8,3.4-7.8,3.2c-5.2,1.7-6.9,7.7-9.8,11.7c-1.4,1.7-2.1,5.4-5,4c-2.9-0.7-5.7-4.4-8.6-1.7c-1.4,0.8-0.5,3.8-2.5,2.6
		c-1.7-0.6-0.4-3.5-1.7-4.8c-2.4-3.5-7-4.5-9.9-7.6c-3.8-3.1-9.2-2.5-13.8-2.8c-3.3,0.8-4.2,5.1-4.9,8c-0.3,5.8,1.1,11.6,0.8,17.3
		c-6.4,12.1-11.6,24.7-15.8,37.7c0.8,6.8,3.4,13.5,4.8,20.3c0.2,2,2.1,4.9-1,5.3c-5.7,2.9-12.2,4.6-17.4,8.4
		c-2.6,3.2-0.2,7.6-0.3,11.2c0.9,5.8,1.3,11.8,2.7,17.5c2.3,2.9,8.1,4.8,10.4,0.9c3.1-7,9.2-12,14.6-17.2c8.6-1.6,17.2-2.7,25.9-3.6
		c0.5,2.8,2.2,6,5.5,5.7c2.7,1,5.6-0.2,5.9-3.3c2.5-3,5.8-6.1,5.6-10.2c7.1-4.6,15.3-7.8,21.9-13c1.7-2.6,0.3-6.2,1.6-9
		c0.9-1.7,0.4-5.4,3.1-5.2c4-0.6,8.4-1.9,12.2-1c4.2,4.9,10.2,7.3,15.7,10.2c-1.4,3.3-3.9,6.9-1.6,10.5c1,5.7,6.3,8.8,10.8,11.5
		c4.1,1.7,9.1,1.4,12.3-2c1.6-0.9,3.2-3.7,5.3-2.1c3,1.1,7,4.3,9.4,0.7s5.7-7.9,3.8-12.4c-0.1-4.3,0.4-8.8,3.2-12.3
		c4.7-8.2,9.3-16.5,14.2-24.5c3.6-0.2,7.8,0.6,10.3-2.8c2.2-2.2,4.9-4,7.8-5.1c3.8-3,5.9-9,2.3-13.1c-1.6-2.3-2.6-4.7-1.2-7.4
		c1.1-3.9,1.5-8,1-12c2.8-2.9,6.5-7.8,3.3-11.7c-2.9-2.7-7-3.2-10.5-4.9c2.1-3.5,1.7-9.5-3-10.6c-1.9-0.5-3.8-0.8-5.8-1
		c-0.6-2,0.7-2.8,2.4-3.2c3.6-1.2,4.3-7.3,0.2-8.2c-3.3-0.2-6.8-0.2-9.8-2c-4.7-1.8-9.1-4.8-14.1-5.9c-2.3-0.3-4,2.2-5.8,2.4
		c-1.6-1.3-3.3-3-5.5-2.7L155.6,841z"/>
	<path id="path3713" class="st0" d="M199,919.3c-4.5,1.7-7.1,7-12.4,6.8c-3.2-0.1-6,1.4-7.1,4.6c-5.2,9.3-11.3,18.2-15.3,28.1
		c-1.6,5.1,1.4,11-2.4,15.4c-0.9,1.1-1.6,3.8-3.4,2.4c-3.4-1.9-8.1-3.1-11.2,0c-2.1,1.7-4.1,3.7-7,3c-4.4,0.1-7.7-3.7-10.7-6.4
		c-2.1-2.8-3.4-6.8-1.3-10c1.9-2.6,1-6.3-2.3-7c-4.9-2.4-9.4-5.3-13.6-8.8c-5-1.8-10.5-0.1-15.6,0.5c-3.7,1.6-3.6,6.5-4.5,10
		c-0.4,2.4,0.3,5.4-2.5,6.4c-6.2,4.2-13.4,6.9-19.2,11.6c-1.9,2.2-1.9,5.4-4.1,7.5c-1.9,2.1-5.5,6-1.8,8.2c1.3,1.3,4.7-0.3,4.8,1.9
		c1.4,3.7,5.4,1.4,8.1,1.6c2.6,1.4,5,3.2,7.2,5.2c-4.4,2.8-8,6.7-10.2,11.4c-2,2.3-2.7,6.3,0.8,7.6c1.6,1.1,4.2,2,3.4,4.4
		c0,3.7,4,4,6.6,5c1.4,1.6,2,3.7,1.9,5.8c-4.2,0.2-3.9,5.4-5,8c-3.3,0.1-8.3-0.5-9.3,3.7c-0.7,1.2,0.8,4.1-1.5,3.5
		c-4.5,0.3-5.6,5.7-6.9,9.1c-1.2,4.3,4.2,5.7,6.8,7.7c2.4,2.3,6,2.4,8-0.4c0.1,1.6,2.3,5,5.2,5.7c2.5,1.9,7,3.2,8.7-0.3
		c3,1.4,7.2,3.6,9.3-0.3c5.3,0.3,10.6,0.5,15.9,0.8c2,3.2,5.8,4.8,9.4,4c4.5-1.2,8.4-4.2,11.8-7.2c1.6-1.2,0.4-4,2.8-4.2
		c2.3-1.1,4.8-2,7.3-2.6c1.7,2.4,4.9,4.8,7.5,2.2c3.5-4.5,4.9-10.3,7.3-15.5c1.6-3.4,2.7-7.6,4.7-10.5c3.9,0.9,5.5-2.9,6.1-6
		c0.8-1.9,1.1-4.6,2.5-5.9c2.8,0.3,7.1,1.2,7.5-2.7c0.1-1.9,0.3-4,2.5-4.6c5.4-2.5,9.6-6.8,13.4-11.2c6.9-7.1,16.3-11.6,22.1-19.9
		c4.1-5,6-11.3,7.8-17.2c1.2-2.5,2-5.7,4.1-7.6c2.8-0.8,4.9-2.9,5.8-5.6c3.4-4.2,8.5-6.7,11.5-11.1c1-2.5-3-3.6-2.4-5.4
		c2.3-4.4,6.6-7.9,7.4-12.9c-0.4-4.1-5.5-4.2-8.6-4.8c-4.2-0.5-8.4,1.6-12.3,1.5c-2.5-2.1-6.4-3.2-9-0.6c-2.3,1.6-3.9,4.3-7,3.6
		c-3.1,0.4-6.2,0.3-8.8-1.7c-4.1-1.9-7.5-5.3-11.9-6.5C199.6,919.4,199.3,919.2,199,919.3L199,919.3z"/>
	<path id="path3715" class="st0" d="M53.4,982.8c-8.4,0.8-16.9,2-25.1,3.5c-5.1,3.7-9.5,8.7-13.4,13.7c-1.9,2.4-5,6.7-1.6,9.2
		c5.7,3.1,12.3,4.5,18.1,7.3l23.7,25.8c0,7.2-0.9,14.6-0.4,21.7c1.3,3.9,5.8,1.4,8.4,0.3c5-1.6,4.4-8.3,7.8-11.6
		c4,0.4,5.3-3.9,5.5-7.1c3.4-0.4,8.9,0.3,9.4-4.4c0.7-1.6,0.4-4.1,2.5-4.3c4-3.4,1.2-10.4-3.4-11.8c-1.1-0.6-3.5-0.5-2.9-2.4
		c-0.1-3.6-4.2-5-5.9-7.3c2.2-5.3,5.9-9.9,10.6-13.2c2.9-3.2-1.6-6-4.1-7.7c-2.8-2.4-6.7-3.1-10.2-2c-1.6,0.6-1.1-2.3-2.7-2.7
		c-3.2-2.3-7.5-0.6-10.8-2.2C58.1,985.3,56.8,982.5,53.4,982.8L53.4,982.8z"/>
</g>
<path id="屏東縣" class="st0" d="M251.2,1077.7c-10.7,0.9-20.4,6.4-27.5,14.3c-4.7,3.7-8.2,10.6-15.1,8.2c-9.1,0-18.2-2-27-2.9
	c-5.4,3.8-4.1,11.9-6.8,17.4c-5.5,11.7,0.6,25.1-2.7,37.1c-5.4,14.8-9.7,30.3-9.6,46.1c1.5,4.3,9.1,7,6.1,12.7
	c-2.1,11.3-9.2,20.8-12.1,31.8c-0.1,6.8-2.2,16.2,4.3,20.7c8.1,2.8,13,11,20.1,15.6c14.3,10.6,31.3,17.1,45.6,27.6
	c4.9,6.6,2.3,18,11.4,21.3c3.9,2.3,9.3,4.3,8.8,9.7c1.7,7.8,0.7,16.5,3.9,23.7c13.5,8,17.4,24.6,20.6,38.9
	c2.3,10.2,4.5,20.5,6.8,30.7c-2.6,2-7.4,4-4.9,8.1c2.2,2.9,4.3,6,1.4,9.3c-1.9,5.9-7.4,11.2-7,17.5c4,7.8,11.7,14.5,9.8,24
	c0,5.8-1.5,13,5.2,15.8c3.2,5.1,10.5,4.6,9.8-2.3c-0.2-5.1,4.8-11.3,10-7.4c10.4,4.3,21.5,8,28.6,17.2c3,2.4,7,9,11.2,4.9
	c1.8-5.8-3.6-11.4-4.2-17c-1.7-6.4-3.2-12.9-3.3-19.6c9.7-6.1,19.2-13.8,24.3-24.1c-1-8.1-4.7-16.4-4.2-24.5
	c4.7-5.1-0.8-10.4-1.5-15.6c3-14.8,0.9-30.1,4.7-44.7c1.5-4.2-0.5-11.7-6.2-9.3c-3.2,1.8-6.4,5.7-9.9,5.6c-0.5-7.1-9.5-4.8-12.9-9.6
	c-2.7-3.9-7.8-6.2-12-3.3c-2-3.3,0.4-6.9-0.3-10.1c-1.8-4.9-8.3-4-10.7-8c4.9-0.9,8.1-5.6,7.2-10.5c-0.1-5.8-4.5-10.6-10.2-11.2
	c0.2-4.8-4.8-6.4-8.8-5.9c1.6-5.4,2.5-11,2.8-16.6c5.5,0,15.5-1,14.7-8.6c-1.8-6.9-4.2-15.9-12.5-17c-3.2-1-2-5.8-3.3-8.2
	c4.9-2.4,8.9-9.8,3.6-13.9c-4.3-3.4-1.9-10.2-5.7-14.2c-2.7-4.1-3.9-10.9,0.6-14.1c2.1-3.1-3-7,1.3-9.4c3.6-4.2,3.2-10.2,6.6-14.7
	c4.8-8.3,8.6-17.1,12.5-25.7c8.3-1.8,17.3-4.8,21.3-13c6.3,0.3,16.1,1.8,17.9-6.4c1.7-7.3,3.1-14.8,6.1-21.7
	c1-6.9-1.2-15.7-9.3-16.9c-3.4-0.1-7-1.4-8.2-4.8c2.1-5,2.1-12.5-4.4-14c-2.7-0.9-5.8,0.8-6.9-3c-3.5-4.6-10.4-3.4-13,1.4
	c-3.1,1.8-7.4,2.6-8.2,6.8c-1.5,1.9-4.2,3.9-5.2,0.3c-5.3-8.4-13.8-16.7-24.2-17.4c-7.4,0.6-11.3,8.7-17.7,10.6
	c-5.7,0.3-2.4-6.4-5.2-9.1C256.3,1078.1,253.6,1077.5,251.2,1077.7L251.2,1077.7z"/>
<g id="高雄市">
	<path id="path3659" class="st0" d="M120.2,1136.1c-4,1.2-2.4,7.4-7.2,7.7c-5.3,1.3-10.9-2.7-15.7,1.4c-3.9,1.9-10.7,5-7.9,10.5
		c1.1,5.3,7.2,11.3,1.8,15.9c-4.9,4.4-4.3,10.3-1.7,15.8c4.3,15.6,15.7,27.7,25,40.4c5.6,6.3,11.5,13.3,19.1,16.8
		c4.4-0.9,5.1-6.5,9.1-8.4c4.4-2.8,9.5-7.8,5.9-13.3c-3.5-6.5-8.9-14.7-17.5-12.7c-3.7-0.3-8.4,0.6-11.6-0.8c0.7-3.5,8.5-4.7,4-9
		c-5.3-1.8,1.7-3.1,2.6-5.5c4.3-5.1,1.2-11.8-1.9-16.5c2.4-3.6,1.3-8.8-3.1-10c-1.8-2.8-7.1-7.2-2.5-10c2.7-3.5,3.9-7.7,6.8-11.2
		C127.7,1142.9,125.8,1135.6,120.2,1136.1L120.2,1136.1z"/>
	<path id="path3717" class="st0" d="M382.5,816c-5.4-0.7-8.7,4.5-13.4,5.3c-7.8-1.5-15.2,4.1-18.3,10.8c-5.8,3.1-16.1,3.5-16,12.1
		c-3.2,5.2-8.4,10-9.3,16c-7.9-0.2-12,7.2-15.3,13.2c-4.7,0.3-11.7-1.4-14,4.1c-3.3,3.2-6,8.5-10.4,9.8c-6.4-2.2-13.2,3.9-11,10.5
		c-0.9,1.5-5.1-1.3-7-1.4c-5.4-1.3-11.5-3.1-16.8-0.9c-1.6,6.9-2,15.5,2.6,21.5c0,3.7-0.5,8,2,11.1c-3,5.2-9.7,11-5.8,17.3
		c-4.3,4.5-9.5,8.6-12.8,13.8c-9.9,5.9-8.5,19.9-16.2,27.8c-7.8,8.8-17.8,15.4-26,23.9c-4.2,4.2-11.9,6-12.1,13
		c-5.7-1.2-9.1,3.7-10,8.7c0,3.9-4.8,2-5.8,5.5c-4.8,7.9-6.6,17.7-12.2,24.9c-4.5-6.1-13.7-2.2-16.3,3.7c-4.2,3.1-9.5,8.2-15.2,6.2
		c-5.7-4.6-13.9-4.5-20.8-4.1c-2.1,1.4-2.9,3.3-5.6,1.4c-3.6-2-6.4,3.8-9.4,0.2c-4.4-1.6-7-7.8-11.9-4.5c-4.5-2.8-10-7-15.3-3
		c-6.2,2.9-1.8,9.9-0.2,14.4c9.2,24.3,17.9,49,27.8,72.8c5.6,3.7,10.5-5.9,16.8-4.4c5.6,1.4,13.8,0.9,15-6.2c0.3-3.5,1.4-2.4,3.5-1
		c3.5,0.1,7-0.8,10.6,0.2c7-0.3,12.4-7.6,19.7-6.1c4.1,1.4,4.4-5.1,8.6-3.4c4.2-0.2,13.3,1.5,12.9-5.1c0.9-5.9,4.5-11.6,5.1-17.8
		c0.9-2.3,0.2-8.2,4.3-6.1c10.6,2.5,22.1,3.8,32.8,1.9c9-7.3,15.7-18.9,28.2-20.6c3.6-1.2,8.1-2.6,10.9,0.9c-0.7,5.1,4,12.5,9.5,8.6
		c6.3-3.1,10.6-11.5,18.7-9c6.7,2.6,13.6,6.5,16.5,13.4c1.8,3.9,7.5,8.1,10.7,3.2c1.5-3.1,2.8-6.1,6.6-6.4c3.1-0.9,3.7-5.5,7.5-4.4
		c4.5-1.1,4.9,6,9.7,4.7c3.5-0.2,8.5,4.8,10-1.2c1.6-7.1-4.9-12.1-11.1-13.4c-3.2-3.4-6.8-8.1-4.4-12.8c0.6-5.1-4.7-8.6-3.1-13.9
		c-1.3-11.8,10.2-18.9,13.2-29.3c1.3-3-1.6-9.8,3.9-8.8c5.7,0.9,8.2-6.3,4-9.7c-3.3-3.3,1.7-7.7,2.3-11.3c5-8.9,4.9-20,1.7-29.4
		c-1.6-1.7-3.1-2.7,0-3.8c4.5-2.6,3.3-9.1,8.5-11c3.6-2.1,2.5-6.1,2-9.3c1.5-5.7,1.8-12.3,4.5-17.3c10-1.3,14.1-12.5,21.2-18
		c11.7-0.7,26.5-4.1,30.8-16.5c0.8-8.1-8.6-12.2-14.9-14.9c-3.1,0.2-3.5-4.8-7.2-4.3c-3.6-0.3-1.2-4.9,1.1-5.7
		c3.9-2.3,5.8-7,3.3-10.9c3.7-0.7,9.4-0.9,9.5-6.1c1.5-5-2.7-8.3-4.4-12.4c-0.8-4.8-0.2-11.6-6.6-12.7c-5.6-1.7-11.3-3.7-17.2-3.6
		L382.5,816z"/>
	<path id="path3721" class="st0" d="M166.1,1126c-4.5-0.4-10.5,1-11.4,5.9c-6.2-4.8-13.4,1.6-19.3,4c-4.3,0-12.7-3-11.7,4.3
		c0.4,4.1,0.4,8.5-3.4,11c-1.3,3.1-3,6.1-5,8.8c-1.1,5.8,4.6,10.4,8.7,12.6c-2.9,4.5-1.4,9.8,2.3,13.2c0,4.4-1.9,8.6-5.2,11.6
		c-2.7,2.9,4.4,5,0.9,6.4c-7.9,2.2-3.6,10.3,3.2,8c5.9,0.8,13.1-1.3,16.7,4.9c3.4,3.3,5.4,7.9,5.5,12.7c-5.2,4.6-12,8.7-13.9,15.7
		c5.4,6.3,12.2,12.4,20.1,15.4c6.8,0.7,5.7-7.9,5.1-12.2c-2-9.2,6.1-16.4,8.4-25c1.9-5.9,5.8-12.4,4.3-18.6c-3.5-3.5-7.7-7.5-6-13.1
		c0.4-14.7,6.2-28,9.5-42.1c0.2-7,2.2-15.2-1.6-21.5C171.6,1125.9,168.7,1125.8,166.1,1126L166.1,1126z"/>
</g>
</svg>
